<?xml version="1.0"?>
<svg xmlns="http://www.w3.org/2000/svg" xmlns:xlink="http://www.w3.org/1999/xlink" version="1.1" id="Capa_1" x="0px" y="0px" viewBox="0 0 412.72 412.72" style="enable-background:new 0 0 412.72 412.72;" xml:space="preserve" width="512px" height="512px" class=""><g><g>
	<path style="fill:#FDFBFB" d="M8,90.944h35.12v208.64c17.054-2.577,34.273-3.914,51.52-4c24.084-0.391,48.066,3.232,70.96,10.72   l19.44,15.52c-11.44-1.28-45.92-1.92-57.2-1.92c-37.264-0.323-74.211,6.859-108.64,21.12l-11.2,4.8L8,90.944z" data-original="#ED7D32" class="" data-old_color="#FBF9F9"/>
	<path style="fill:#FDFBFB" d="M393.44,341.024c-34.429-14.261-71.376-21.443-108.64-21.12c-11.36,0-43.84,1.28-55.2,2.56l17.44-16   c22.988-7.573,47.08-11.25,71.28-10.88c17.247,0.089,34.466,1.426,51.52,4V90.944h35.12v254.96L393.44,341.024z" data-original="#ED7D32" class="" data-old_color="#FBF9F9"/>
</g><g>
	<path style="fill:#FFFFFF;" d="M193.92,319.824c-16.88-11.04-48-24-99.36-24c-14.204,0.055-28.391,0.991-42.48,2.8l-8.96,1.12   V73.584l6.24-1.44c16.156-3.584,32.652-5.407,49.2-5.44c31.36,0,75.12,7.28,105.76,41.84l2,2v217.44L193.92,319.824z" data-original="#FFFFFF" class=""/>
	<path style="fill:#FFFFFF;" d="M206.32,110.544l2-2.24c30.64-34.64,74.48-41.84,105.76-41.84c16.548,0.036,33.044,1.86,49.2,5.44   l6.24,1.44v226.16l-8.96-1.12c-14.009-1.8-28.116-2.735-42.24-2.8c-51.6,0-82.48,13.2-99.36,24l-12.4,8L206.32,110.544z" data-original="#FFFFFF" class=""/>
</g><path style="fill:#2E7D32" d="M404.64,82.944h-27.12v-9.28c0.146-3.673-2.23-6.974-5.76-8c-18.828-4.934-38.216-7.408-57.68-7.36  c-32,0-75.6,7.2-107.84,40c-32-33.12-75.92-40-107.84-40c-19.464-0.048-38.852,2.426-57.68,7.36c-3.53,1.026-5.906,4.327-5.76,8v9.2  H8c-4.418,0-8,3.582-8,8v255.52c0,4.418,3.582,8,8,8c1.374-0.004,2.724-0.362,3.92-1.04c0.8-0.4,80.8-44.16,192.48-16h1.2h0.72  c0.638,0.077,1.282,0.077,1.92,0c112-28.4,192,15.28,192.48,16c2.475,1.429,5.525,1.429,8,0c2.46-1.42,3.983-4.039,4-6.88V90.944  c0-4.418-3.581-8-8-8C404.694,82.944,404.667,82.944,404.64,82.944L404.64,82.944z M16,333.664V98.944h19.12v200.64  c-0.05,4.418,3.491,8.04,7.909,8.09c0.432,0.005,0.864-0.025,1.291-0.09c16.55-2.527,33.259-3.864,50-4  c23.19-0.402,46.283,3.086,68.32,10.32C112.875,307.886,62.397,314.688,16,333.664L16,333.664z M198.32,313.184  c-16.64-10.88-49.12-25.52-104-25.52c-14.551,0.033-29.085,0.968-43.52,2.8V79.984c15.576-3.47,31.482-5.241,47.44-5.28  c29.92,0,71.2,6.88,99.84,39.2L198.32,313.184z M214.32,113.904c28.64-32,69.92-39.2,99.84-39.2  c15.957,0.047,31.863,1.817,47.44,5.28v210.48c-14.354-1.849-28.808-2.811-43.28-2.88c-54.56,0-87.12,14.64-104,25.52V113.904z   M396.64,333.664c-46.496-19.028-97.09-25.831-146.96-19.76c22.14-7.26,45.343-10.749,68.64-10.32  c16.846,0.094,33.663,1.404,50.32,3.92c4.368,0.663,8.447-2.341,9.11-6.709c0.065-0.427,0.095-0.859,0.09-1.291V98.944h19.12  L396.64,333.664z" data-original="#3F2E1B" class="active-path" data-old_color="#27A450"/></g> </svg>
